{"title":"Dupa Dealuri - Beyond the Hills (Cristian Mungiu, 2012)","uid":8048921,"size":1994246567,"categoryP":"video","categoryS":"movies","magnet":"?xt=urn:btih:de49bcb033b0c2d97b59c9e688bdb4acdcb0a216&amp;dn=Dupa+Dealuri+-+Beyond+the+Hills+%28Cristian+Mungiu%2C+2012%29&amp;tr=udp%3A%2F%2Ftracker.openbittorrent.com%3A80&amp;tr=udp%3A%2F%2Fopen.demonii.com%3A1337&amp;tr=udp%3A%2F%2Ftracker.coppersurfer.tk%3A6969&amp;tr=udp%3A%2F%2Fexodus.desync.com%3A6969","seeders":5,"leechers":0,"uploader":"moonflux","files":-1,"time":1358816251,"description":"Alina and Voichita have been friends since their orphanage days. And they have been lovers since they became sexually mature. But despite their oath of mutual fidelity, Alina, who could not bear poverty any more, emigrated to Germany where she became a barmaid. Now she just could not take the estrangement from Alina and today she is back to Moldavia with a view to taking Voichita along with her to Germany.\n\nGeneral\nComplete name                            : Dupa dealuri (Cristian Mungiu, 2012).avi\nFormat                                   : AVI\nFormat/Info                              : Audio Video Interleave\nFile size                                : 1.86 GiB\nDuration                                 : 2h 25mn\nOverall bit rate                         : 1 823 Kbps\nWriting application                      : VirtualDubMod 1.5.4.1 (build 2178/release)\nWriting library                          : VirtualDubMod build 2178/release\n\nVideo\nID                                       : 0\nFormat                                   : MPEG-4 Visual\nFormat profile                           : Advanced Simple@L5\nFormat settings, BVOP                    : No\nFormat settings, QPel                    : No\nFormat settings, GMC                     : No warppoints\nFormat settings, Matrix                  : Custom\nCodec ID                                 : XVID\nCodec ID/Hint                            : XviD\nDuration                                 : 2h 25mn\nBit rate                                 : 1 368 Kbps\nWidth                                    : 720 pixels\nHeight                                   : 304 pixels\nDisplay aspect ratio                     : 2.35:1\nFrame rate                               : 25.000 fps\nColor space                              : YUV\nChroma subsampling                       : 4:2:0\nBit depth                                : 8 bits\nScan type                                : Progressive\nCompression mode                         : Lossy\nBits/(Pixel*Frame)                       : 0.250\nStream size                              : 1.39 GiB (75%)\nWriting library                          : XviD 1.2.1 (UTC 2008-12-04)\n\nAudio\nID                                       : 1\nFormat                                   : AC-3\nFormat/Info                              : Audio Coding 3\nMode extension                           : CM (complete main)\nFormat settings, Endianness              : Big\nCodec ID                                 : 2000\nDuration                                 : 2h 25mn\nBit rate mode                            : Constant\nBit rate                                 : 448 Kbps\nChannel(s)                               : 6 channels\nChannel positions                        : Front: L C R, Side: L R, LFE\nSampling rate                            : 48.0 KHz\nBit depth                                : 16 bits\nCompression mode                         : Lossy\nStream size                              : 467 MiB (25%)\nAlignment                                : Split accross interleaves\nInterleave, duration                     : 96 ms (2.40 video frames)\nInterleave, preload duration             : 96 ms\n\n","torrent":{"xt":"urn:btih:de49bcb033b0c2d97b59c9e688bdb4acdcb0a216","amp;dn":"Dupa+Dealuri+-+Beyond+the+Hills+%28Cristian+Mungiu%2C+2012%29","amp;tr":["udp%3A%2F%2Ftracker.openbittorrent.com%3A80","udp%3A%2F%2Fopen.demonii.com%3A1337","udp%3A%2F%2Ftracker.coppersurfer.tk%3A6969","udp%3A%2F%2Fexodus.desync.com%3A6969"],"infoHash":"de49bcb033b0c2d97b59c9e688bdb4acdcb0a216","infoHashBuffer":{"type":"Buffer","data":[222,73,188,176,51,176,194,217,123,89,201,230,136,189,180,172,220,176,162,22]},"announce":[],"urlList":[]}}